<?xml version="1.0" standalone="no"?>
<!DOCTYPE svg PUBLIC "-//W3C//DTD SVG 20010904//EN"
 "http://www.w3.org/TR/2001/REC-SVG-20010904/DTD/svg10.dtd">
<svg version="1.0" xmlns="http://www.w3.org/2000/svg"
 width="24.000000pt" height="24.000000pt" viewBox="0 0 24.000000 24.000000"
 preserveAspectRatio="xMidYMid meet">

<g transform="translate(0.000000,24.000000) scale(0.100000,-0.100000)"
fill="#000000" stroke="none">
<path d="M32 198 c-16 -16 -16 -140 0 -156 16 -16 160 -16 176 0 7 7 12 40 12
78 0 38 -5 71 -12 78 -16 16 -160 16 -176 0z m168 -78 l0 -70 -80 0 -80 0 0
70 0 70 80 0 80 0 0 -70z"/>
<path d="M80 155 c0 -9 12 -21 26 -27 22 -11 28 -10 40 7 16 22 18 35 4 35 -5
0 -10 -7 -10 -15 0 -8 -9 -15 -20 -15 -11 0 -20 7 -20 15 0 8 -4 15 -10 15 -5
0 -10 -7 -10 -15z"/>
</g>
</svg>
